<svg width="14" height="12" viewBox="0 0 14 12" fill="none" xmlns="http://www.w3.org/2000/svg">
<path d="M13.7746 1.77062C13.2657 1.99575 12.7259 2.1436 12.1733 2.20928C12.7558 1.86091 13.1918 1.31263 13.4 0.666618C12.8533 0.991951 12.254 1.21995 11.6293 1.34328C11.2097 0.894337 10.6535 0.596593 10.0473 0.496341C9.44101 0.396089 8.8186 0.498945 8.27682 0.78892C7.73504 1.07889 7.30423 1.53974 7.05138 2.09981C6.79854 2.65989 6.73781 3.2878 6.87864 3.88595C5.77005 3.83039 4.68553 3.5423 3.6955 3.04039C2.70547 2.53849 1.83206 1.83398 1.13197 0.972618C0.884168 1.39825 0.753944 1.8821 0.754641 2.37462C0.754641 3.34128 1.24664 4.19528 1.99464 4.69528C1.55198 4.68135 1.11906 4.56181 0.731974 4.34662V4.38128C0.732108 5.02508 0.954887 5.64903 1.36254 6.14732C1.77019 6.64562 2.33763 6.9876 2.96864 7.11528C2.55772 7.22664 2.12685 7.24306 1.70864 7.16328C1.88655 7.71744 2.23331 8.20208 2.70037 8.54936C3.16743 8.89663 3.73139 9.08915 4.31331 9.09995C3.73496 9.55417 3.07276 9.88994 2.36456 10.0881C1.65636 10.2862 0.916059 10.3428 0.185974 10.2546C1.46044 11.0742 2.94404 11.5094 4.45931 11.508C9.58798 11.508 12.3926 7.25928 12.3926 3.57462C12.3926 3.45462 12.3893 3.33328 12.384 3.21462C12.9299 2.82006 13.401 2.3313 13.7753 1.77128L13.7746 1.77062Z" fill="white"/>
</svg>
